<mxfile host="app.diagrams.net" modified="2021-12-08T12:36:39.675Z" agent="5.0 (Windows NT 10.0; Win64; x64) AppleWebKit/537.36 (KHTML, like Gecko) Chrome/96.0.4664.45 Safari/537.36" etag="QswjQrUahX8fK730JO9x" version="15.7.4" type="github">
  <diagram id="Ek5cl0H8uM_TNycQwnGm" name="Page-1">
    <mxGraphModel dx="2249" dy="706" grid="1" gridSize="10" guides="1" tooltips="1" connect="1" arrows="1" fold="1" page="1" pageScale="1" pageWidth="827" pageHeight="1169" math="0" shadow="0">
      <root>
        <mxCell id="0" />
        <mxCell id="1" parent="0" />
        <mxCell id="DLg2FtgOmZU_2NfKqEg3-8" style="edgeStyle=orthogonalEdgeStyle;rounded=0;orthogonalLoop=1;jettySize=auto;html=1;exitX=1;exitY=0.5;exitDx=0;exitDy=0;entryX=0.5;entryY=0;entryDx=0;entryDy=0;fontSize=12;strokeWidth=1;" parent="1" source="DLg2FtgOmZU_2NfKqEg3-1" target="DLg2FtgOmZU_2NfKqEg3-4" edge="1">
          <mxGeometry relative="1" as="geometry" />
        </mxCell>
        <mxCell id="DLg2FtgOmZU_2NfKqEg3-18" value="2" style="edgeLabel;html=1;align=center;verticalAlign=middle;resizable=0;points=[];fontSize=12;" parent="DLg2FtgOmZU_2NfKqEg3-8" vertex="1" connectable="0">
          <mxGeometry x="-0.0125" y="-1" relative="1" as="geometry">
            <mxPoint as="offset" />
          </mxGeometry>
        </mxCell>
        <mxCell id="DLg2FtgOmZU_2NfKqEg3-9" style="edgeStyle=orthogonalEdgeStyle;rounded=0;orthogonalLoop=1;jettySize=auto;html=1;exitX=0.5;exitY=1;exitDx=0;exitDy=0;entryX=0.5;entryY=0;entryDx=0;entryDy=0;fontSize=12;strokeWidth=1;" parent="1" source="DLg2FtgOmZU_2NfKqEg3-1" target="DLg2FtgOmZU_2NfKqEg3-3" edge="1">
          <mxGeometry relative="1" as="geometry" />
        </mxCell>
        <mxCell id="DLg2FtgOmZU_2NfKqEg3-19" value="3" style="edgeLabel;html=1;align=center;verticalAlign=middle;resizable=0;points=[];fontSize=12;" parent="DLg2FtgOmZU_2NfKqEg3-9" vertex="1" connectable="0">
          <mxGeometry x="-0.25" y="3" relative="1" as="geometry">
            <mxPoint as="offset" />
          </mxGeometry>
        </mxCell>
        <mxCell id="DLg2FtgOmZU_2NfKqEg3-10" style="edgeStyle=orthogonalEdgeStyle;rounded=0;orthogonalLoop=1;jettySize=auto;html=1;exitX=0;exitY=0.5;exitDx=0;exitDy=0;entryX=0.5;entryY=0;entryDx=0;entryDy=0;fontSize=12;strokeWidth=1;" parent="1" source="DLg2FtgOmZU_2NfKqEg3-1" target="DLg2FtgOmZU_2NfKqEg3-2" edge="1">
          <mxGeometry relative="1" as="geometry" />
        </mxCell>
        <mxCell id="DLg2FtgOmZU_2NfKqEg3-17" value="1" style="edgeLabel;html=1;align=center;verticalAlign=middle;resizable=0;points=[];fontSize=12;" parent="DLg2FtgOmZU_2NfKqEg3-10" vertex="1" connectable="0">
          <mxGeometry x="0.0875" y="-2" relative="1" as="geometry">
            <mxPoint as="offset" />
          </mxGeometry>
        </mxCell>
        <mxCell id="DLg2FtgOmZU_2NfKqEg3-1" value="&lt;font style=&quot;font-size: 12px&quot;&gt;&lt;b&gt;classifier&lt;br&gt;#0&lt;/b&gt;&lt;/font&gt;" style="rounded=0;whiteSpace=wrap;html=1;fillColor=#e51400;fontColor=#ffffff;strokeColor=#B20000;" parent="1" vertex="1">
          <mxGeometry x="40" y="40" width="120" height="40" as="geometry" />
        </mxCell>
        <mxCell id="DLg2FtgOmZU_2NfKqEg3-13" style="edgeStyle=orthogonalEdgeStyle;rounded=0;orthogonalLoop=1;jettySize=auto;html=1;exitX=0.5;exitY=1;exitDx=0;exitDy=0;fontSize=12;strokeWidth=1;" parent="1" source="DLg2FtgOmZU_2NfKqEg3-2" target="DLg2FtgOmZU_2NfKqEg3-6" edge="1">
          <mxGeometry relative="1" as="geometry" />
        </mxCell>
        <mxCell id="DLg2FtgOmZU_2NfKqEg3-52" value="5" style="edgeLabel;html=1;align=center;verticalAlign=middle;resizable=0;points=[];fontSize=12;" parent="DLg2FtgOmZU_2NfKqEg3-13" vertex="1" connectable="0">
          <mxGeometry x="-0.25" y="4" relative="1" as="geometry">
            <mxPoint as="offset" />
          </mxGeometry>
        </mxCell>
        <mxCell id="DLg2FtgOmZU_2NfKqEg3-16" style="edgeStyle=orthogonalEdgeStyle;rounded=0;orthogonalLoop=1;jettySize=auto;html=1;exitX=0;exitY=0.5;exitDx=0;exitDy=0;entryX=0;entryY=0.25;entryDx=0;entryDy=0;fontSize=12;strokeWidth=1;" parent="1" source="DLg2FtgOmZU_2NfKqEg3-2" target="DLg2FtgOmZU_2NfKqEg3-7" edge="1">
          <mxGeometry relative="1" as="geometry">
            <Array as="points">
              <mxPoint x="-200" y="180" />
              <mxPoint x="-200" y="410" />
            </Array>
          </mxGeometry>
        </mxCell>
        <mxCell id="DLg2FtgOmZU_2NfKqEg3-50" value="4" style="edgeLabel;html=1;align=center;verticalAlign=middle;resizable=0;points=[];fontSize=12;" parent="DLg2FtgOmZU_2NfKqEg3-16" vertex="1" connectable="0">
          <mxGeometry x="-0.6875" y="-3" relative="1" as="geometry">
            <mxPoint as="offset" />
          </mxGeometry>
        </mxCell>
        <mxCell id="DLg2FtgOmZU_2NfKqEg3-24" style="edgeStyle=orthogonalEdgeStyle;rounded=0;orthogonalLoop=1;jettySize=auto;html=1;exitX=1;exitY=0.5;exitDx=0;exitDy=0;entryX=0.25;entryY=0;entryDx=0;entryDy=0;fontSize=12;strokeWidth=1;" parent="1" source="DLg2FtgOmZU_2NfKqEg3-2" target="DLg2FtgOmZU_2NfKqEg3-5" edge="1">
          <mxGeometry relative="1" as="geometry">
            <Array as="points">
              <mxPoint y="180" />
              <mxPoint y="250" />
              <mxPoint x="70" y="250" />
            </Array>
          </mxGeometry>
        </mxCell>
        <mxCell id="DLg2FtgOmZU_2NfKqEg3-51" value="6" style="edgeLabel;html=1;align=center;verticalAlign=middle;resizable=0;points=[];fontSize=12;" parent="DLg2FtgOmZU_2NfKqEg3-24" vertex="1" connectable="0">
          <mxGeometry x="-0.1524" y="-2" relative="1" as="geometry">
            <mxPoint as="offset" />
          </mxGeometry>
        </mxCell>
        <mxCell id="DLg2FtgOmZU_2NfKqEg3-2" value="&lt;b&gt;vif_ingress&lt;br&gt;&lt;/b&gt;#1" style="rounded=0;whiteSpace=wrap;html=1;fillColor=#0050ef;fontColor=#ffffff;strokeColor=#001DBC;" parent="1" vertex="1">
          <mxGeometry x="-160" y="160" width="120" height="40" as="geometry" />
        </mxCell>
        <mxCell id="DLg2FtgOmZU_2NfKqEg3-11" style="edgeStyle=orthogonalEdgeStyle;rounded=0;orthogonalLoop=1;jettySize=auto;html=1;exitX=0.5;exitY=1;exitDx=0;exitDy=0;fontSize=12;strokeWidth=1;" parent="1" source="DLg2FtgOmZU_2NfKqEg3-3" target="DLg2FtgOmZU_2NfKqEg3-5" edge="1">
          <mxGeometry relative="1" as="geometry" />
        </mxCell>
        <mxCell id="DLg2FtgOmZU_2NfKqEg3-53" value="7" style="edgeLabel;html=1;align=center;verticalAlign=middle;resizable=0;points=[];fontSize=12;" parent="DLg2FtgOmZU_2NfKqEg3-11" vertex="1" connectable="0">
          <mxGeometry x="-0.25" y="5" relative="1" as="geometry">
            <mxPoint as="offset" />
          </mxGeometry>
        </mxCell>
        <mxCell id="DLg2FtgOmZU_2NfKqEg3-12" style="edgeStyle=orthogonalEdgeStyle;rounded=0;orthogonalLoop=1;jettySize=auto;html=1;exitX=1;exitY=0.5;exitDx=0;exitDy=0;entryX=1;entryY=0.5;entryDx=0;entryDy=0;fontSize=12;strokeWidth=1;" parent="1" source="DLg2FtgOmZU_2NfKqEg3-3" target="DLg2FtgOmZU_2NfKqEg3-7" edge="1">
          <mxGeometry relative="1" as="geometry">
            <Array as="points">
              <mxPoint x="200" y="180" />
              <mxPoint x="200" y="420" />
            </Array>
          </mxGeometry>
        </mxCell>
        <mxCell id="DLg2FtgOmZU_2NfKqEg3-54" value="8" style="edgeLabel;html=1;align=center;verticalAlign=middle;resizable=0;points=[];fontSize=12;" parent="DLg2FtgOmZU_2NfKqEg3-12" vertex="1" connectable="0">
          <mxGeometry x="-0.3937" y="3" relative="1" as="geometry">
            <mxPoint as="offset" />
          </mxGeometry>
        </mxCell>
        <mxCell id="DLg2FtgOmZU_2NfKqEg3-3" value="&lt;b&gt;tunnel_ingress&lt;br&gt;&lt;/b&gt;#2" style="rounded=0;whiteSpace=wrap;html=1;fillColor=#0050ef;fontColor=#ffffff;strokeColor=#001DBC;" parent="1" vertex="1">
          <mxGeometry x="40" y="160" width="120" height="40" as="geometry" />
        </mxCell>
        <mxCell id="DLg2FtgOmZU_2NfKqEg3-21" style="edgeStyle=orthogonalEdgeStyle;rounded=0;orthogonalLoop=1;jettySize=auto;html=1;exitX=0.5;exitY=1;exitDx=0;exitDy=0;entryX=1;entryY=0.5;entryDx=0;entryDy=0;fontSize=12;strokeWidth=1;" parent="1" source="DLg2FtgOmZU_2NfKqEg3-4" target="DLg2FtgOmZU_2NfKqEg3-7" edge="1">
          <mxGeometry relative="1" as="geometry" />
        </mxCell>
        <mxCell id="DLg2FtgOmZU_2NfKqEg3-55" value="9" style="edgeLabel;html=1;align=center;verticalAlign=middle;resizable=0;points=[];fontSize=12;" parent="DLg2FtgOmZU_2NfKqEg3-21" vertex="1" connectable="0">
          <mxGeometry x="-0.7556" y="5" relative="1" as="geometry">
            <mxPoint as="offset" />
          </mxGeometry>
        </mxCell>
        <mxCell id="DLg2FtgOmZU_2NfKqEg3-4" value="&lt;b&gt;vlan_ingress&lt;br&gt;&lt;/b&gt;#15" style="rounded=0;whiteSpace=wrap;html=1;fillColor=#0050ef;fontColor=#ffffff;strokeColor=#001DBC;" parent="1" vertex="1">
          <mxGeometry x="240" y="160" width="120" height="40" as="geometry" />
        </mxCell>
        <mxCell id="DLg2FtgOmZU_2NfKqEg3-22" style="edgeStyle=orthogonalEdgeStyle;rounded=0;orthogonalLoop=1;jettySize=auto;html=1;exitX=0.5;exitY=1;exitDx=0;exitDy=0;fontSize=12;strokeWidth=1;" parent="1" source="DLg2FtgOmZU_2NfKqEg3-5" target="DLg2FtgOmZU_2NfKqEg3-7" edge="1">
          <mxGeometry relative="1" as="geometry" />
        </mxCell>
        <mxCell id="DLg2FtgOmZU_2NfKqEg3-58" value="12" style="edgeLabel;html=1;align=center;verticalAlign=middle;resizable=0;points=[];fontSize=12;" parent="DLg2FtgOmZU_2NfKqEg3-22" vertex="1" connectable="0">
          <mxGeometry x="-0.25" y="-1" relative="1" as="geometry">
            <mxPoint as="offset" />
          </mxGeometry>
        </mxCell>
        <mxCell id="DLg2FtgOmZU_2NfKqEg3-25" style="edgeStyle=orthogonalEdgeStyle;rounded=0;orthogonalLoop=1;jettySize=auto;html=1;exitX=0;exitY=0.5;exitDx=0;exitDy=0;entryX=1;entryY=0.5;entryDx=0;entryDy=0;fontSize=12;strokeWidth=1;" parent="1" source="DLg2FtgOmZU_2NfKqEg3-5" target="DLg2FtgOmZU_2NfKqEg3-6" edge="1">
          <mxGeometry relative="1" as="geometry" />
        </mxCell>
        <mxCell id="DLg2FtgOmZU_2NfKqEg3-56" value="10" style="edgeLabel;html=1;align=center;verticalAlign=middle;resizable=0;points=[];fontSize=12;" parent="DLg2FtgOmZU_2NfKqEg3-25" vertex="1" connectable="0">
          <mxGeometry x="-0.25" y="5" relative="1" as="geometry">
            <mxPoint as="offset" />
          </mxGeometry>
        </mxCell>
        <mxCell id="DLg2FtgOmZU_2NfKqEg3-5" value="&lt;b&gt;do_learning&lt;br&gt;#12&lt;br&gt;&lt;/b&gt;" style="rounded=0;whiteSpace=wrap;html=1;fillColor=#0050ef;fontColor=#ffffff;strokeColor=#001DBC;" parent="1" vertex="1">
          <mxGeometry x="40" y="280" width="120" height="40" as="geometry" />
        </mxCell>
        <mxCell id="DLg2FtgOmZU_2NfKqEg3-23" style="edgeStyle=orthogonalEdgeStyle;rounded=0;orthogonalLoop=1;jettySize=auto;html=1;exitX=0.5;exitY=1;exitDx=0;exitDy=0;entryX=0;entryY=0.25;entryDx=0;entryDy=0;fontSize=12;strokeWidth=1;" parent="1" source="DLg2FtgOmZU_2NfKqEg3-6" target="DLg2FtgOmZU_2NfKqEg3-7" edge="1">
          <mxGeometry relative="1" as="geometry" />
        </mxCell>
        <mxCell id="DLg2FtgOmZU_2NfKqEg3-57" value="11" style="edgeLabel;html=1;align=center;verticalAlign=middle;resizable=0;points=[];fontSize=12;" parent="DLg2FtgOmZU_2NfKqEg3-23" vertex="1" connectable="0">
          <mxGeometry x="-0.7" y="5" relative="1" as="geometry">
            <mxPoint as="offset" />
          </mxGeometry>
        </mxCell>
        <mxCell id="DLg2FtgOmZU_2NfKqEg3-6" value="&lt;b&gt;arp_reponder&lt;br&gt;#11&lt;br&gt;&lt;/b&gt;" style="rounded=0;whiteSpace=wrap;html=1;fillColor=#0050ef;fontColor=#ffffff;strokeColor=#001DBC;" parent="1" vertex="1">
          <mxGeometry x="-160" y="280" width="120" height="40" as="geometry" />
        </mxCell>
        <mxCell id="DLg2FtgOmZU_2NfKqEg3-32" style="edgeStyle=orthogonalEdgeStyle;rounded=0;orthogonalLoop=1;jettySize=auto;html=1;exitX=0.75;exitY=1;exitDx=0;exitDy=0;entryX=0.5;entryY=0;entryDx=0;entryDy=0;fontSize=12;strokeWidth=1;" parent="1" source="DLg2FtgOmZU_2NfKqEg3-7" target="DLg2FtgOmZU_2NfKqEg3-26" edge="1">
          <mxGeometry relative="1" as="geometry" />
        </mxCell>
        <mxCell id="DLg2FtgOmZU_2NfKqEg3-59" value="13" style="edgeLabel;html=1;align=center;verticalAlign=middle;resizable=0;points=[];fontSize=12;" parent="DLg2FtgOmZU_2NfKqEg3-32" vertex="1" connectable="0">
          <mxGeometry x="-0.25" relative="1" as="geometry">
            <mxPoint as="offset" />
          </mxGeometry>
        </mxCell>
        <mxCell id="DLg2FtgOmZU_2NfKqEg3-84" style="edgeStyle=orthogonalEdgeStyle;rounded=0;orthogonalLoop=1;jettySize=auto;html=1;exitX=0.5;exitY=1;exitDx=0;exitDy=0;entryX=0.5;entryY=0;entryDx=0;entryDy=0;fontSize=12;strokeWidth=1;" parent="1" source="DLg2FtgOmZU_2NfKqEg3-7" target="DLg2FtgOmZU_2NfKqEg3-74" edge="1">
          <mxGeometry relative="1" as="geometry" />
        </mxCell>
        <mxCell id="DLg2FtgOmZU_2NfKqEg3-92" style="edgeStyle=orthogonalEdgeStyle;rounded=0;orthogonalLoop=1;jettySize=auto;html=1;exitX=0;exitY=0.75;exitDx=0;exitDy=0;entryX=0;entryY=0.75;entryDx=0;entryDy=0;fontSize=12;strokeWidth=1;" parent="1" source="DLg2FtgOmZU_2NfKqEg3-7" target="DLg2FtgOmZU_2NfKqEg3-81" edge="1">
          <mxGeometry relative="1" as="geometry">
            <Array as="points">
              <mxPoint y="430" />
              <mxPoint y="790" />
            </Array>
          </mxGeometry>
        </mxCell>
        <mxCell id="DLg2FtgOmZU_2NfKqEg3-93" style="edgeStyle=orthogonalEdgeStyle;rounded=0;orthogonalLoop=1;jettySize=auto;html=1;exitX=0.25;exitY=1;exitDx=0;exitDy=0;entryX=0.5;entryY=0;entryDx=0;entryDy=0;fontSize=12;strokeWidth=1;" parent="1" source="DLg2FtgOmZU_2NfKqEg3-7" target="DLg2FtgOmZU_2NfKqEg3-75" edge="1">
          <mxGeometry relative="1" as="geometry" />
        </mxCell>
        <mxCell id="DLg2FtgOmZU_2NfKqEg3-109" style="edgeStyle=orthogonalEdgeStyle;rounded=0;orthogonalLoop=1;jettySize=auto;html=1;exitX=0;exitY=0.5;exitDx=0;exitDy=0;entryX=0;entryY=0.5;entryDx=0;entryDy=0;fontSize=12;strokeWidth=1;" parent="1" source="DLg2FtgOmZU_2NfKqEg3-7" target="DLg2FtgOmZU_2NfKqEg3-79" edge="1">
          <mxGeometry relative="1" as="geometry" />
        </mxCell>
        <mxCell id="DLg2FtgOmZU_2NfKqEg3-113" style="edgeStyle=orthogonalEdgeStyle;rounded=0;orthogonalLoop=1;jettySize=auto;html=1;exitX=0;exitY=0.5;exitDx=0;exitDy=0;entryX=0;entryY=0.5;entryDx=0;entryDy=0;fontSize=12;strokeWidth=1;" parent="1" source="DLg2FtgOmZU_2NfKqEg3-7" target="DLg2FtgOmZU_2NfKqEg3-80" edge="1">
          <mxGeometry relative="1" as="geometry">
            <Array as="points">
              <mxPoint x="-200" y="420" />
              <mxPoint x="-200" y="900" />
            </Array>
          </mxGeometry>
        </mxCell>
        <mxCell id="DLg2FtgOmZU_2NfKqEg3-7" value="&lt;b&gt;l2_forwarding&lt;br&gt;#3&lt;br&gt;&lt;/b&gt;" style="rounded=0;whiteSpace=wrap;html=1;fillColor=#e51400;fontColor=#ffffff;strokeColor=#B20000;" parent="1" vertex="1">
          <mxGeometry x="40" y="400" width="120" height="40" as="geometry" />
        </mxCell>
        <mxCell id="DLg2FtgOmZU_2NfKqEg3-34" style="edgeStyle=orthogonalEdgeStyle;rounded=0;orthogonalLoop=1;jettySize=auto;html=1;exitX=0.5;exitY=1;exitDx=0;exitDy=0;fontSize=12;strokeWidth=1;" parent="1" source="DLg2FtgOmZU_2NfKqEg3-26" target="DLg2FtgOmZU_2NfKqEg3-27" edge="1">
          <mxGeometry relative="1" as="geometry" />
        </mxCell>
        <mxCell id="DLg2FtgOmZU_2NfKqEg3-62" value="15" style="edgeLabel;html=1;align=center;verticalAlign=middle;resizable=0;points=[];fontSize=12;" parent="DLg2FtgOmZU_2NfKqEg3-34" vertex="1" connectable="0">
          <mxGeometry x="-0.25" y="4" relative="1" as="geometry">
            <mxPoint as="offset" />
          </mxGeometry>
        </mxCell>
        <mxCell id="DLg2FtgOmZU_2NfKqEg3-45" style="edgeStyle=orthogonalEdgeStyle;rounded=0;orthogonalLoop=1;jettySize=auto;html=1;exitX=0;exitY=0.5;exitDx=0;exitDy=0;entryX=0;entryY=0.5;entryDx=0;entryDy=0;fontSize=12;strokeWidth=1;" parent="1" source="DLg2FtgOmZU_2NfKqEg3-26" target="DLg2FtgOmZU_2NfKqEg3-30" edge="1">
          <mxGeometry relative="1" as="geometry">
            <Array as="points">
              <mxPoint x="200" y="540" />
              <mxPoint x="200" y="1020" />
            </Array>
          </mxGeometry>
        </mxCell>
        <mxCell id="DLg2FtgOmZU_2NfKqEg3-60" value="14" style="edgeLabel;html=1;align=center;verticalAlign=middle;resizable=0;points=[];fontSize=12;" parent="DLg2FtgOmZU_2NfKqEg3-45" vertex="1" connectable="0">
          <mxGeometry x="-0.6607" y="1" relative="1" as="geometry">
            <mxPoint as="offset" />
          </mxGeometry>
        </mxCell>
        <mxCell id="DLg2FtgOmZU_2NfKqEg3-26" value="&lt;b&gt;l3_lif_ingress&lt;br&gt;#21&lt;br&gt;&lt;/b&gt;" style="rounded=0;whiteSpace=wrap;html=1;fillColor=#0050ef;fontColor=#ffffff;strokeColor=#001DBC;" parent="1" vertex="1">
          <mxGeometry x="240" y="520" width="120" height="40" as="geometry" />
        </mxCell>
        <mxCell id="DLg2FtgOmZU_2NfKqEg3-47" style="edgeStyle=orthogonalEdgeStyle;rounded=0;orthogonalLoop=1;jettySize=auto;html=1;exitX=1;exitY=0.5;exitDx=0;exitDy=0;fontSize=12;strokeWidth=1;" parent="1" source="DLg2FtgOmZU_2NfKqEg3-27" target="DLg2FtgOmZU_2NfKqEg3-46" edge="1">
          <mxGeometry relative="1" as="geometry" />
        </mxCell>
        <mxCell id="DLg2FtgOmZU_2NfKqEg3-61" value="16" style="edgeLabel;html=1;align=center;verticalAlign=middle;resizable=0;points=[];fontSize=12;" parent="DLg2FtgOmZU_2NfKqEg3-47" vertex="1" connectable="0">
          <mxGeometry x="-0.7625" y="2" relative="1" as="geometry">
            <mxPoint as="offset" />
          </mxGeometry>
        </mxCell>
        <mxCell id="DLg2FtgOmZU_2NfKqEg3-65" style="edgeStyle=orthogonalEdgeStyle;rounded=0;orthogonalLoop=1;jettySize=auto;html=1;exitX=0.5;exitY=1;exitDx=0;exitDy=0;fontSize=12;strokeWidth=1;" parent="1" source="DLg2FtgOmZU_2NfKqEg3-27" target="DLg2FtgOmZU_2NfKqEg3-28" edge="1">
          <mxGeometry relative="1" as="geometry" />
        </mxCell>
        <mxCell id="DLg2FtgOmZU_2NfKqEg3-27" value="&lt;b&gt;l3_next_hop&lt;br&gt;#23&lt;br&gt;&lt;/b&gt;" style="rounded=0;whiteSpace=wrap;html=1;fillColor=#0050ef;fontColor=#ffffff;strokeColor=#001DBC;" parent="1" vertex="1">
          <mxGeometry x="240" y="640" width="120" height="40" as="geometry" />
        </mxCell>
        <mxCell id="DLg2FtgOmZU_2NfKqEg3-36" style="edgeStyle=orthogonalEdgeStyle;rounded=0;orthogonalLoop=1;jettySize=auto;html=1;exitX=0.5;exitY=1;exitDx=0;exitDy=0;fontSize=12;strokeWidth=1;" parent="1" source="DLg2FtgOmZU_2NfKqEg3-28" target="DLg2FtgOmZU_2NfKqEg3-29" edge="1">
          <mxGeometry relative="1" as="geometry" />
        </mxCell>
        <mxCell id="DLg2FtgOmZU_2NfKqEg3-28" value="&lt;b&gt;l3_forwarding&lt;br&gt;#24&lt;br&gt;&lt;/b&gt;" style="rounded=0;whiteSpace=wrap;html=1;fillColor=#e51400;fontColor=#ffffff;strokeColor=#B20000;" parent="1" vertex="1">
          <mxGeometry x="240" y="760" width="120" height="40" as="geometry" />
        </mxCell>
        <mxCell id="DLg2FtgOmZU_2NfKqEg3-37" style="edgeStyle=orthogonalEdgeStyle;rounded=0;orthogonalLoop=1;jettySize=auto;html=1;exitX=0.5;exitY=1;exitDx=0;exitDy=0;fontSize=12;strokeWidth=1;" parent="1" source="DLg2FtgOmZU_2NfKqEg3-29" target="DLg2FtgOmZU_2NfKqEg3-30" edge="1">
          <mxGeometry relative="1" as="geometry" />
        </mxCell>
        <mxCell id="DLg2FtgOmZU_2NfKqEg3-29" value="&lt;b&gt;l3_dec_ttl&lt;br&gt;#25&lt;br&gt;&lt;/b&gt;" style="rounded=0;whiteSpace=wrap;html=1;fillColor=#0050ef;fontColor=#ffffff;strokeColor=#001DBC;" parent="1" vertex="1">
          <mxGeometry x="240" y="880" width="120" height="40" as="geometry" />
        </mxCell>
        <mxCell id="DLg2FtgOmZU_2NfKqEg3-38" style="edgeStyle=orthogonalEdgeStyle;rounded=0;orthogonalLoop=1;jettySize=auto;html=1;exitX=0.5;exitY=1;exitDx=0;exitDy=0;entryX=0.5;entryY=0;entryDx=0;entryDy=0;fontSize=12;strokeWidth=1;" parent="1" source="DLg2FtgOmZU_2NfKqEg3-30" target="DLg2FtgOmZU_2NfKqEg3-31" edge="1">
          <mxGeometry relative="1" as="geometry" />
        </mxCell>
        <mxCell id="DLg2FtgOmZU_2NfKqEg3-43" style="edgeStyle=orthogonalEdgeStyle;rounded=0;orthogonalLoop=1;jettySize=auto;html=1;exitX=0;exitY=0.75;exitDx=0;exitDy=0;entryX=0;entryY=0.5;entryDx=0;entryDy=0;fontSize=12;strokeWidth=1;" parent="1" source="DLg2FtgOmZU_2NfKqEg3-30" target="DLg2FtgOmZU_2NfKqEg3-40" edge="1">
          <mxGeometry relative="1" as="geometry">
            <Array as="points">
              <mxPoint x="200" y="1030" />
              <mxPoint x="200" y="1260" />
            </Array>
          </mxGeometry>
        </mxCell>
        <mxCell id="DLg2FtgOmZU_2NfKqEg3-48" style="edgeStyle=orthogonalEdgeStyle;rounded=0;orthogonalLoop=1;jettySize=auto;html=1;exitX=1;exitY=0.5;exitDx=0;exitDy=0;fontSize=12;strokeWidth=1;" parent="1" source="DLg2FtgOmZU_2NfKqEg3-30" target="DLg2FtgOmZU_2NfKqEg3-46" edge="1">
          <mxGeometry relative="1" as="geometry" />
        </mxCell>
        <mxCell id="DLg2FtgOmZU_2NfKqEg3-30" value="&lt;b&gt;l3_arp_processing&lt;br&gt;#22&lt;br&gt;&lt;/b&gt;" style="rounded=0;whiteSpace=wrap;html=1;fillColor=#0050ef;fontColor=#ffffff;strokeColor=#001DBC;" parent="1" vertex="1">
          <mxGeometry x="240" y="1000" width="120" height="40" as="geometry" />
        </mxCell>
        <mxCell id="DLg2FtgOmZU_2NfKqEg3-41" style="edgeStyle=orthogonalEdgeStyle;rounded=0;orthogonalLoop=1;jettySize=auto;html=1;exitX=0.5;exitY=1;exitDx=0;exitDy=0;fontSize=12;strokeWidth=1;" parent="1" source="DLg2FtgOmZU_2NfKqEg3-31" target="DLg2FtgOmZU_2NfKqEg3-40" edge="1">
          <mxGeometry relative="1" as="geometry" />
        </mxCell>
        <mxCell id="DLg2FtgOmZU_2NfKqEg3-31" value="&lt;b&gt;l3_icmp_responder&lt;br&gt;#27&lt;br&gt;&lt;/b&gt;" style="rounded=0;whiteSpace=wrap;html=1;fillColor=#0050ef;fontColor=#ffffff;strokeColor=#001DBC;" parent="1" vertex="1">
          <mxGeometry x="240" y="1120" width="120" height="40" as="geometry" />
        </mxCell>
        <mxCell id="DLg2FtgOmZU_2NfKqEg3-49" style="edgeStyle=orthogonalEdgeStyle;rounded=0;orthogonalLoop=1;jettySize=auto;html=1;exitX=1;exitY=0.5;exitDx=0;exitDy=0;entryX=1;entryY=0.75;entryDx=0;entryDy=0;fontSize=12;strokeWidth=1;" parent="1" source="DLg2FtgOmZU_2NfKqEg3-40" target="DLg2FtgOmZU_2NfKqEg3-7" edge="1">
          <mxGeometry relative="1" as="geometry">
            <Array as="points">
              <mxPoint x="600" y="1260" />
              <mxPoint x="600" y="430" />
            </Array>
          </mxGeometry>
        </mxCell>
        <mxCell id="DLg2FtgOmZU_2NfKqEg3-40" value="&lt;b&gt;l3_lif_egress&lt;br&gt;#26&lt;br&gt;&lt;/b&gt;" style="rounded=0;whiteSpace=wrap;html=1;fillColor=#0050ef;fontColor=#ffffff;strokeColor=#001DBC;" parent="1" vertex="1">
          <mxGeometry x="240" y="1240" width="120" height="40" as="geometry" />
        </mxCell>
        <mxCell id="DLg2FtgOmZU_2NfKqEg3-46" value="&lt;b&gt;drop&lt;br&gt;&lt;/b&gt;" style="rounded=0;whiteSpace=wrap;html=1;fillColor=#f0a30a;fontColor=#000000;strokeColor=#BD7000;" parent="1" vertex="1">
          <mxGeometry x="440" y="1000" width="120" height="40" as="geometry" />
        </mxCell>
        <mxCell id="DLg2FtgOmZU_2NfKqEg3-66" value="17" style="text;html=1;strokeColor=none;fillColor=none;align=center;verticalAlign=middle;whiteSpace=wrap;rounded=0;fontSize=12;" parent="1" vertex="1">
          <mxGeometry x="300" y="700" width="20" height="30" as="geometry" />
        </mxCell>
        <mxCell id="DLg2FtgOmZU_2NfKqEg3-67" value="18" style="text;html=1;strokeColor=none;fillColor=none;align=center;verticalAlign=middle;whiteSpace=wrap;rounded=0;fontSize=12;" parent="1" vertex="1">
          <mxGeometry x="300" y="820" width="20" height="30" as="geometry" />
        </mxCell>
        <mxCell id="DLg2FtgOmZU_2NfKqEg3-68" value="19" style="text;html=1;strokeColor=none;fillColor=none;align=center;verticalAlign=middle;whiteSpace=wrap;rounded=0;fontSize=12;" parent="1" vertex="1">
          <mxGeometry x="300" y="940" width="20" height="30" as="geometry" />
        </mxCell>
        <mxCell id="DLg2FtgOmZU_2NfKqEg3-69" value="20" style="text;html=1;strokeColor=none;fillColor=none;align=center;verticalAlign=middle;whiteSpace=wrap;rounded=0;fontSize=12;" parent="1" vertex="1">
          <mxGeometry x="380" y="990" width="20" height="30" as="geometry" />
        </mxCell>
        <mxCell id="DLg2FtgOmZU_2NfKqEg3-70" value="21&lt;span style=&quot;color: rgba(0 , 0 , 0 , 0) ; font-family: monospace ; font-size: 0px&quot;&gt;%3CmxGraphModel%3E%3Croot%3E%3CmxCell%20id%3D%220%22%2F%3E%3CmxCell%20id%3D%221%22%20parent%3D%220%22%2F%3E%3CmxCell%20id%3D%222%22%20value%3D%2219%22%20style%3D%22text%3Bhtml%3D1%3BstrokeColor%3Dnone%3BfillColor%3Dnone%3Balign%3Dcenter%3BverticalAlign%3Dmiddle%3BwhiteSpace%3Dwrap%3Brounded%3D0%3BfontSize%3D12%3B%22%20vertex%3D%221%22%20parent%3D%221%22%3E%3CmxGeometry%20x%3D%22100%22%20y%3D%22940%22%20width%3D%2220%22%20height%3D%2230%22%20as%3D%22geometry%22%2F%3E%3C%2FmxCell%3E%3C%2Froot%3E%3C%2FmxGraphModel%3E&lt;/span&gt;" style="text;html=1;strokeColor=none;fillColor=none;align=center;verticalAlign=middle;whiteSpace=wrap;rounded=0;fontSize=12;" parent="1" vertex="1">
          <mxGeometry x="300" y="1050" width="20" height="30" as="geometry" />
        </mxCell>
        <mxCell id="DLg2FtgOmZU_2NfKqEg3-71" value="22" style="text;html=1;strokeColor=none;fillColor=none;align=center;verticalAlign=middle;whiteSpace=wrap;rounded=0;fontSize=12;" parent="1" vertex="1">
          <mxGeometry x="200" y="1060" width="20" height="30" as="geometry" />
        </mxCell>
        <mxCell id="DLg2FtgOmZU_2NfKqEg3-72" value="23" style="text;html=1;strokeColor=none;fillColor=none;align=center;verticalAlign=middle;whiteSpace=wrap;rounded=0;fontSize=12;" parent="1" vertex="1">
          <mxGeometry x="300" y="1169" width="20" height="30" as="geometry" />
        </mxCell>
        <mxCell id="DLg2FtgOmZU_2NfKqEg3-73" value="24" style="text;html=1;strokeColor=none;fillColor=none;align=center;verticalAlign=middle;whiteSpace=wrap;rounded=0;fontSize=12;" parent="1" vertex="1">
          <mxGeometry x="400" y="1230" width="20" height="30" as="geometry" />
        </mxCell>
        <mxCell id="DLg2FtgOmZU_2NfKqEg3-86" style="edgeStyle=orthogonalEdgeStyle;rounded=0;orthogonalLoop=1;jettySize=auto;html=1;exitX=0.5;exitY=1;exitDx=0;exitDy=0;entryX=0.5;entryY=0;entryDx=0;entryDy=0;fontSize=12;strokeWidth=1;" parent="1" source="DLg2FtgOmZU_2NfKqEg3-74" target="DLg2FtgOmZU_2NfKqEg3-76" edge="1">
          <mxGeometry relative="1" as="geometry" />
        </mxCell>
        <mxCell id="DLg2FtgOmZU_2NfKqEg3-88" style="edgeStyle=orthogonalEdgeStyle;rounded=0;orthogonalLoop=1;jettySize=auto;html=1;exitX=0;exitY=0.5;exitDx=0;exitDy=0;entryX=0;entryY=0.5;entryDx=0;entryDy=0;fontSize=12;strokeWidth=1;" parent="1" source="DLg2FtgOmZU_2NfKqEg3-74" target="DLg2FtgOmZU_2NfKqEg3-81" edge="1">
          <mxGeometry relative="1" as="geometry" />
        </mxCell>
        <mxCell id="DLg2FtgOmZU_2NfKqEg3-74" value="&lt;b&gt;remote_replication&lt;br&gt;#7&lt;br&gt;&lt;/b&gt;" style="rounded=0;whiteSpace=wrap;html=1;fillColor=#0050ef;fontColor=#ffffff;strokeColor=#001DBC;" parent="1" vertex="1">
          <mxGeometry x="40" y="520" width="120" height="40" as="geometry" />
        </mxCell>
        <mxCell id="DLg2FtgOmZU_2NfKqEg3-94" style="edgeStyle=orthogonalEdgeStyle;rounded=0;orthogonalLoop=1;jettySize=auto;html=1;exitX=0.5;exitY=1;exitDx=0;exitDy=0;entryX=0.5;entryY=0;entryDx=0;entryDy=0;fontSize=12;strokeWidth=1;" parent="1" source="DLg2FtgOmZU_2NfKqEg3-75" target="DLg2FtgOmZU_2NfKqEg3-78" edge="1">
          <mxGeometry relative="1" as="geometry" />
        </mxCell>
        <mxCell id="DLg2FtgOmZU_2NfKqEg3-75" value="&lt;b&gt;consult_learning&lt;br&gt;#13&lt;br&gt;&lt;/b&gt;" style="rounded=0;whiteSpace=wrap;html=1;fillColor=#0050ef;fontColor=#ffffff;strokeColor=#001DBC;" parent="1" vertex="1">
          <mxGeometry x="-160" y="520" width="120" height="40" as="geometry" />
        </mxCell>
        <mxCell id="DLg2FtgOmZU_2NfKqEg3-87" style="edgeStyle=orthogonalEdgeStyle;rounded=0;orthogonalLoop=1;jettySize=auto;html=1;exitX=0.5;exitY=1;exitDx=0;exitDy=0;entryX=1;entryY=0.5;entryDx=0;entryDy=0;fontSize=12;strokeWidth=1;" parent="1" source="DLg2FtgOmZU_2NfKqEg3-76" target="DLg2FtgOmZU_2NfKqEg3-77" edge="1">
          <mxGeometry relative="1" as="geometry">
            <Array as="points">
              <mxPoint x="100" y="720" />
              <mxPoint x="180" y="720" />
              <mxPoint x="180" y="900" />
            </Array>
          </mxGeometry>
        </mxCell>
        <mxCell id="DLg2FtgOmZU_2NfKqEg3-76" value="&lt;b&gt;vlan_egress&lt;br&gt;#16&lt;br&gt;&lt;/b&gt;" style="rounded=0;whiteSpace=wrap;html=1;fillColor=#0050ef;fontColor=#ffffff;strokeColor=#001DBC;" parent="1" vertex="1">
          <mxGeometry x="40" y="640" width="120" height="40" as="geometry" />
        </mxCell>
        <mxCell id="DLg2FtgOmZU_2NfKqEg3-77" value="&lt;b&gt;output to patch&lt;br&gt;&lt;/b&gt;" style="rounded=0;whiteSpace=wrap;html=1;fillColor=#f0a30a;fontColor=#000000;strokeColor=#BD7000;" parent="1" vertex="1">
          <mxGeometry x="40" y="880" width="120" height="40" as="geometry" />
        </mxCell>
        <mxCell id="DLg2FtgOmZU_2NfKqEg3-95" style="edgeStyle=orthogonalEdgeStyle;rounded=0;orthogonalLoop=1;jettySize=auto;html=1;exitX=0.5;exitY=1;exitDx=0;exitDy=0;entryX=0.5;entryY=0;entryDx=0;entryDy=0;fontSize=12;strokeWidth=1;" parent="1" source="DLg2FtgOmZU_2NfKqEg3-78" target="DLg2FtgOmZU_2NfKqEg3-79" edge="1">
          <mxGeometry relative="1" as="geometry" />
        </mxCell>
        <mxCell id="DLg2FtgOmZU_2NfKqEg3-96" style="edgeStyle=orthogonalEdgeStyle;rounded=0;orthogonalLoop=1;jettySize=auto;html=1;exitX=1;exitY=0.5;exitDx=0;exitDy=0;entryX=0;entryY=0.25;entryDx=0;entryDy=0;fontSize=12;strokeWidth=1;" parent="1" source="DLg2FtgOmZU_2NfKqEg3-78" target="DLg2FtgOmZU_2NfKqEg3-81" edge="1">
          <mxGeometry relative="1" as="geometry">
            <Array as="points">
              <mxPoint x="-10" y="660" />
              <mxPoint x="-10" y="770" />
            </Array>
          </mxGeometry>
        </mxCell>
        <mxCell id="DLg2FtgOmZU_2NfKqEg3-97" style="edgeStyle=orthogonalEdgeStyle;rounded=0;orthogonalLoop=1;jettySize=auto;html=1;exitX=0.75;exitY=1;exitDx=0;exitDy=0;entryX=1;entryY=0.5;entryDx=0;entryDy=0;fontSize=12;strokeWidth=1;" parent="1" source="DLg2FtgOmZU_2NfKqEg3-78" target="DLg2FtgOmZU_2NfKqEg3-80" edge="1">
          <mxGeometry relative="1" as="geometry">
            <Array as="points">
              <mxPoint x="-70" y="700" />
              <mxPoint x="-20" y="700" />
              <mxPoint x="-20" y="900" />
            </Array>
          </mxGeometry>
        </mxCell>
        <mxCell id="DLg2FtgOmZU_2NfKqEg3-78" value="&lt;b&gt;deliver_learned&lt;br&gt;#14&lt;br&gt;&lt;/b&gt;" style="rounded=0;whiteSpace=wrap;html=1;fillColor=#0050ef;fontColor=#ffffff;strokeColor=#001DBC;" parent="1" vertex="1">
          <mxGeometry x="-160" y="640" width="120" height="40" as="geometry" />
        </mxCell>
        <mxCell id="DLg2FtgOmZU_2NfKqEg3-111" style="edgeStyle=orthogonalEdgeStyle;rounded=0;orthogonalLoop=1;jettySize=auto;html=1;exitX=0.5;exitY=1;exitDx=0;exitDy=0;entryX=0.5;entryY=0;entryDx=0;entryDy=0;fontSize=12;strokeWidth=1;" parent="1" source="DLg2FtgOmZU_2NfKqEg3-79" target="DLg2FtgOmZU_2NfKqEg3-80" edge="1">
          <mxGeometry relative="1" as="geometry" />
        </mxCell>
        <mxCell id="DLg2FtgOmZU_2NfKqEg3-79" value="&lt;b&gt;local_replication&lt;br&gt;#6&lt;br&gt;&lt;/b&gt;" style="rounded=0;whiteSpace=wrap;html=1;fillColor=#0050ef;fontColor=#ffffff;strokeColor=#001DBC;" parent="1" vertex="1">
          <mxGeometry x="-160" y="760" width="120" height="40" as="geometry" />
        </mxCell>
        <mxCell id="DLg2FtgOmZU_2NfKqEg3-112" style="edgeStyle=orthogonalEdgeStyle;rounded=0;orthogonalLoop=1;jettySize=auto;html=1;exitX=0.5;exitY=1;exitDx=0;exitDy=0;fontSize=12;strokeWidth=1;" parent="1" source="DLg2FtgOmZU_2NfKqEg3-80" target="DLg2FtgOmZU_2NfKqEg3-83" edge="1">
          <mxGeometry relative="1" as="geometry" />
        </mxCell>
        <mxCell id="DLg2FtgOmZU_2NfKqEg3-80" value="&lt;b&gt;local_egress&lt;br&gt;#4&lt;br&gt;&lt;/b&gt;" style="rounded=0;whiteSpace=wrap;html=1;fillColor=#0050ef;fontColor=#ffffff;strokeColor=#001DBC;" parent="1" vertex="1">
          <mxGeometry x="-160" y="880" width="120" height="40" as="geometry" />
        </mxCell>
        <mxCell id="DLg2FtgOmZU_2NfKqEg3-89" style="edgeStyle=orthogonalEdgeStyle;rounded=0;orthogonalLoop=1;jettySize=auto;html=1;exitX=0.5;exitY=1;exitDx=0;exitDy=0;entryX=0;entryY=0.5;entryDx=0;entryDy=0;fontSize=12;strokeWidth=1;" parent="1" source="DLg2FtgOmZU_2NfKqEg3-81" target="DLg2FtgOmZU_2NfKqEg3-82" edge="1">
          <mxGeometry relative="1" as="geometry">
            <Array as="points">
              <mxPoint x="100" y="850" />
              <mxPoint x="20" y="850" />
              <mxPoint x="20" y="1020" />
            </Array>
          </mxGeometry>
        </mxCell>
        <mxCell id="DLg2FtgOmZU_2NfKqEg3-81" value="&lt;b&gt;remote_egress&lt;br&gt;#5&lt;br&gt;&lt;/b&gt;" style="rounded=0;whiteSpace=wrap;html=1;fillColor=#0050ef;fontColor=#ffffff;strokeColor=#001DBC;" parent="1" vertex="1">
          <mxGeometry x="40" y="760" width="120" height="40" as="geometry" />
        </mxCell>
        <mxCell id="DLg2FtgOmZU_2NfKqEg3-82" value="&lt;b&gt;output to tun&lt;br&gt;&lt;/b&gt;" style="rounded=0;whiteSpace=wrap;html=1;fillColor=#f0a30a;fontColor=#000000;strokeColor=#BD7000;" parent="1" vertex="1">
          <mxGeometry x="40" y="1000" width="120" height="40" as="geometry" />
        </mxCell>
        <mxCell id="DLg2FtgOmZU_2NfKqEg3-83" value="&lt;b&gt;output local&lt;br&gt;&lt;/b&gt;" style="rounded=0;whiteSpace=wrap;html=1;fillColor=#f0a30a;fontColor=#000000;strokeColor=#BD7000;" parent="1" vertex="1">
          <mxGeometry x="-160" y="1000" width="120" height="40" as="geometry" />
        </mxCell>
        <mxCell id="DLg2FtgOmZU_2NfKqEg3-98" value="25" style="text;html=1;strokeColor=none;fillColor=none;align=center;verticalAlign=middle;whiteSpace=wrap;rounded=0;fontSize=12;" parent="1" vertex="1">
          <mxGeometry x="80" y="470" width="20" height="30" as="geometry" />
        </mxCell>
        <mxCell id="DLg2FtgOmZU_2NfKqEg3-99" value="26" style="text;html=1;strokeColor=none;fillColor=none;align=center;verticalAlign=middle;whiteSpace=wrap;rounded=0;fontSize=12;" parent="1" vertex="1">
          <mxGeometry x="100" y="580" width="20" height="30" as="geometry" />
        </mxCell>
        <mxCell id="DLg2FtgOmZU_2NfKqEg3-100" value="27" style="text;html=1;strokeColor=none;fillColor=none;align=center;verticalAlign=middle;whiteSpace=wrap;rounded=0;fontSize=12;" parent="1" vertex="1">
          <mxGeometry x="20" y="584.5" width="20" height="30" as="geometry" />
        </mxCell>
        <mxCell id="DLg2FtgOmZU_2NfKqEg3-101" value="28" style="text;html=1;strokeColor=none;fillColor=none;align=center;verticalAlign=middle;whiteSpace=wrap;rounded=0;fontSize=12;" parent="1" vertex="1">
          <mxGeometry x="100" y="690" width="20" height="30" as="geometry" />
        </mxCell>
        <mxCell id="DLg2FtgOmZU_2NfKqEg3-102" value="29" style="text;html=1;strokeColor=none;fillColor=none;align=center;verticalAlign=middle;whiteSpace=wrap;rounded=0;fontSize=12;" parent="1" vertex="1">
          <mxGeometry x="100" y="810" width="20" height="30" as="geometry" />
        </mxCell>
        <mxCell id="DLg2FtgOmZU_2NfKqEg3-103" value="30" style="text;html=1;strokeColor=none;fillColor=none;align=center;verticalAlign=middle;whiteSpace=wrap;rounded=0;fontSize=12;" parent="1" vertex="1">
          <mxGeometry x="-20" y="430" width="20" height="30" as="geometry" />
        </mxCell>
        <mxCell id="DLg2FtgOmZU_2NfKqEg3-104" value="31" style="text;html=1;strokeColor=none;fillColor=none;align=center;verticalAlign=middle;whiteSpace=wrap;rounded=0;fontSize=12;" parent="1" vertex="1">
          <mxGeometry x="20" y="450" width="20" height="30" as="geometry" />
        </mxCell>
        <mxCell id="DLg2FtgOmZU_2NfKqEg3-105" value="32" style="text;html=1;strokeColor=none;fillColor=none;align=center;verticalAlign=middle;whiteSpace=wrap;rounded=0;fontSize=12;" parent="1" vertex="1">
          <mxGeometry x="-100" y="570" width="20" height="30" as="geometry" />
        </mxCell>
        <mxCell id="DLg2FtgOmZU_2NfKqEg3-106" value="33" style="text;html=1;strokeColor=none;fillColor=none;align=center;verticalAlign=middle;whiteSpace=wrap;rounded=0;fontSize=12;" parent="1" vertex="1">
          <mxGeometry x="-130" y="690" width="20" height="30" as="geometry" />
        </mxCell>
        <mxCell id="DLg2FtgOmZU_2NfKqEg3-107" value="34" style="text;html=1;strokeColor=none;fillColor=none;align=center;verticalAlign=middle;whiteSpace=wrap;rounded=0;fontSize=12;" parent="1" vertex="1">
          <mxGeometry x="-30" y="630" width="20" height="30" as="geometry" />
        </mxCell>
        <mxCell id="DLg2FtgOmZU_2NfKqEg3-108" value="35" style="text;html=1;strokeColor=none;fillColor=none;align=center;verticalAlign=middle;whiteSpace=wrap;rounded=0;fontSize=12;" parent="1" vertex="1">
          <mxGeometry x="-60" y="700" width="20" height="30" as="geometry" />
        </mxCell>
        <mxCell id="DLg2FtgOmZU_2NfKqEg3-110" value="36" style="text;html=1;strokeColor=none;fillColor=none;align=center;verticalAlign=middle;whiteSpace=wrap;rounded=0;fontSize=12;" parent="1" vertex="1">
          <mxGeometry x="-160" y="420" width="20" height="30" as="geometry" />
        </mxCell>
        <mxCell id="DLg2FtgOmZU_2NfKqEg3-114" value="37" style="text;html=1;strokeColor=none;fillColor=none;align=center;verticalAlign=middle;whiteSpace=wrap;rounded=0;fontSize=12;" parent="1" vertex="1">
          <mxGeometry x="-199" y="820" width="20" height="30" as="geometry" />
        </mxCell>
        <mxCell id="DLg2FtgOmZU_2NfKqEg3-115" value="38" style="text;html=1;strokeColor=none;fillColor=none;align=center;verticalAlign=middle;whiteSpace=wrap;rounded=0;fontSize=12;" parent="1" vertex="1">
          <mxGeometry x="-120" y="830" width="20" height="30" as="geometry" />
        </mxCell>
        <mxCell id="DLg2FtgOmZU_2NfKqEg3-116" value="39" style="text;html=1;strokeColor=none;fillColor=none;align=center;verticalAlign=middle;whiteSpace=wrap;rounded=0;fontSize=12;" parent="1" vertex="1">
          <mxGeometry x="-120" y="940" width="20" height="30" as="geometry" />
        </mxCell>
      </root>
    </mxGraphModel>
  </diagram>
</mxfile>
